<?xml version="1.0" encoding="UTF-8" standalone="no"?>
<!DOCTYPE svg PUBLIC "-//W3C//DTD SVG 1.1//EN"
 "http://www.w3.org/Graphics/SVG/1.1/DTD/svg11.dtd">
<!-- Generated by graphviz version 9.0.0 (0)
 -->
<!-- Pages: 1 -->
<svg width="623pt" height="260pt"
 viewBox="0.00 0.00 623.25 260.00" xmlns="http://www.w3.org/2000/svg" xmlns:xlink="http://www.w3.org/1999/xlink">
<g id="graph0" class="graph" transform="scale(1 1) rotate(0) translate(4 256)">
<!-- Functor -->
<g id="node1" class="node">
<title>Functor</title>
<polygon fill="none" stroke="var(--darkreader-text--text)" points="58,-252 0,-252 0,-216 58,-216 58,-252"/>
<text text-anchor="middle" x="29" y="-228.95" font-family="Times,serif" font-size="14.00" fill="var(--darkreader-text--text)">Functor</text>
</g>
<!-- Applicative -->
<g id="node2" class="node">
<title>Applicative</title>
<polygon fill="none" stroke="var(--darkreader-text--text)" stroke-width="2" points="160.5,-180 75.5,-180 75.5,-144 160.5,-144 160.5,-180"/>
<text text-anchor="start" x="83.5" y="-157.95" font-family="Times,serif" font-weight="bold" font-size="14.00" fill="var(--darkreader-text--text)"> Applicative</text>
</g>
<!-- Functor&#45;&gt;Applicative -->
<g id="edge1" class="edge">
<title>Functor&#45;&gt;Applicative</title>
<path fill="none" stroke="var(--darkreader-text--text)" d="M51,-215.7C61.64,-207.33 74.61,-197.12 86.3,-187.93"/>
<polygon fill="var(--darkreader-text--text)" stroke="var(--darkreader-text--text)" points="88.44,-190.7 94.13,-181.77 84.11,-185.2 88.44,-190.7"/>
</g>
<!-- Traversable -->
<g id="node3" class="node">
<title>Traversable</title>
<polygon fill="none" stroke="var(--darkreader-text--text)" points="98.88,-36 19.12,-36 19.12,0 98.88,0 98.88,-36"/>
<text text-anchor="middle" x="59" y="-12.95" font-family="Times,serif" font-size="14.00" fill="var(--darkreader-text--text)">Traversable</text>
</g>
<!-- Functor&#45;&gt;Traversable -->
<g id="edge2" class="edge">
<title>Functor&#45;&gt;Traversable</title>
<path fill="none" stroke="var(--darkreader-text--text)" d="M31.4,-215.85C36.55,-179.14 48.67,-92.66 55,-47.53"/>
<polygon fill="var(--darkreader-text--text)" stroke="var(--darkreader-text--text)" points="58.45,-48.12 56.37,-37.73 51.52,-47.15 58.45,-48.12"/>
</g>
<!-- Applicative&#45;&gt;Traversable -->
<g id="edge7" class="edge">
<title>Applicative&#45;&gt;Traversable</title>
<path fill="none" stroke="var(--darkreader-text--text)" stroke-dasharray="1,5" d="M101.4,-143.15C93.2,-133.43 83.84,-120.79 78,-108 67.3,-84.57 62.52,-54.9 60.46,-36.43"/>
</g>
<!-- Alternative -->
<g id="node6" class="node">
<title>Alternative</title>
<polygon fill="none" stroke="var(--darkreader-text--text)" points="163.38,-108 86.62,-108 86.62,-72 163.38,-72 163.38,-108"/>
<text text-anchor="middle" x="125" y="-84.95" font-family="Times,serif" font-size="14.00" fill="var(--darkreader-text--text)">Alternative</text>
</g>
<!-- Applicative&#45;&gt;Alternative -->
<g id="edge5" class="edge">
<title>Applicative&#45;&gt;Alternative</title>
<path fill="none" stroke="var(--darkreader-text--text)" d="M119.77,-143.34C120.48,-136.15 121.33,-127.66 122.14,-119.64"/>
<polygon fill="var(--darkreader-text--text)" stroke="var(--darkreader-text--text)" points="125.6,-120.22 123.11,-109.92 118.63,-119.52 125.6,-120.22"/>
</g>
<!-- Monad -->
<g id="node7" class="node">
<title>Monad</title>
<polygon fill="none" stroke="var(--darkreader-text--text)" points="317.5,-108 262.5,-108 262.5,-72 317.5,-72 317.5,-108"/>
<text text-anchor="middle" x="290" y="-84.95" font-family="Times,serif" font-size="14.00" fill="var(--darkreader-text--text)">Monad</text>
</g>
<!-- Applicative&#45;&gt;Monad -->
<g id="edge6" class="edge">
<title>Applicative&#45;&gt;Monad</title>
<path fill="none" stroke="var(--darkreader-text--text)" d="M161.49,-144.93C185.93,-135.71 217.16,-123.59 251.82,-108.82"/>
<polygon fill="var(--darkreader-text--text)" stroke="var(--darkreader-text--text)" points="252.98,-112.13 260.79,-104.97 250.22,-105.7 252.98,-112.13"/>
</g>
<!-- Apply -->
<g id="node4" class="node">
<title>Apply</title>
<polygon fill="none" stroke="var(--darkreader-text--text)" points="145,-252 91,-252 91,-216 145,-216 145,-252"/>
<text text-anchor="middle" x="118" y="-228.95" font-family="Times,serif" font-size="14.00" fill="var(--darkreader-text--text)">Apply</text>
</g>
<!-- Apply&#45;&gt;Applicative -->
<g id="edge3" class="edge">
<title>Apply&#45;&gt;Applicative</title>
<path fill="none" stroke="var(--darkreader-text--text)" d="M118,-215.7C118,-208.52 118,-199.99 118,-191.9"/>
<polygon fill="var(--darkreader-text--text)" stroke="var(--darkreader-text--text)" points="121.5,-192.1 118,-182.1 114.5,-192.1 121.5,-192.1"/>
</g>
<!-- Semigroup -->
<g id="node5" class="node">
<title>Semigroup</title>
<polygon fill="none" stroke="var(--darkreader-text--text)" points="328,-252 252,-252 252,-216 328,-216 328,-252"/>
<text text-anchor="middle" x="290" y="-228.95" font-family="Times,serif" font-size="14.00" fill="var(--darkreader-text--text)">Semigroup</text>
</g>
<!-- Semigroup&#45;&gt;Apply -->
<g id="edge4" class="edge">
<title>Semigroup&#45;&gt;Apply</title>
<path fill="none" stroke="var(--darkreader-text--text)" stroke-dasharray="1,5" d="M251.54,-234C216.1,-234 180.65,-234 145.21,-234"/>
</g>
<!-- Monoid -->
<g id="node11" class="node">
<title>Monoid</title>
<polygon fill="none" stroke="var(--darkreader-text--text)" points="319.75,-180 260.25,-180 260.25,-144 319.75,-144 319.75,-180"/>
<text text-anchor="middle" x="290" y="-156.95" font-family="Times,serif" font-size="14.00" fill="var(--darkreader-text--text)">Monoid</text>
</g>
<!-- Semigroup&#45;&gt;Monoid -->
<g id="edge11" class="edge">
<title>Semigroup&#45;&gt;Monoid</title>
<path fill="none" stroke="var(--darkreader-text--text)" d="M290,-215.7C290,-208.41 290,-199.73 290,-191.54"/>
<polygon fill="var(--darkreader-text--text)" stroke="var(--darkreader-text--text)" points="293.5,-191.62 290,-181.62 286.5,-191.62 293.5,-191.62"/>
</g>
<!-- MonadPlus -->
<g id="node8" class="node">
<title>MonadPlus</title>
<polygon fill="none" stroke="var(--darkreader-text--text)" points="334.12,-36 255.88,-36 255.88,0 334.12,0 334.12,-36"/>
<text text-anchor="middle" x="295" y="-12.95" font-family="Times,serif" font-size="14.00" fill="var(--darkreader-text--text)">MonadPlus</text>
</g>
<!-- Monad&#45;&gt;MonadPlus -->
<g id="edge8" class="edge">
<title>Monad&#45;&gt;MonadPlus</title>
<path fill="none" stroke="var(--darkreader-text--text)" d="M291.24,-71.7C291.76,-64.41 292.38,-55.73 292.96,-47.54"/>
<polygon fill="var(--darkreader-text--text)" stroke="var(--darkreader-text--text)" points="296.45,-47.84 293.67,-37.61 289.47,-47.34 296.45,-47.84"/>
</g>
<!-- MonadFix -->
<g id="node9" class="node">
<title>MonadFix</title>
<polygon fill="none" stroke="var(--darkreader-text--text)" points="237.5,-36 164.5,-36 164.5,0 237.5,0 237.5,-36"/>
<text text-anchor="middle" x="201" y="-12.95" font-family="Times,serif" font-size="14.00" fill="var(--darkreader-text--text)">MonadFix</text>
</g>
<!-- Monad&#45;&gt;MonadFix -->
<g id="edge9" class="edge">
<title>Monad&#45;&gt;MonadFix</title>
<path fill="none" stroke="var(--darkreader-text--text)" d="M268,-71.7C257.09,-63.11 243.73,-52.61 231.82,-43.24"/>
<polygon fill="var(--darkreader-text--text)" stroke="var(--darkreader-text--text)" points="234.27,-40.71 224.25,-37.28 229.94,-46.22 234.27,-40.71"/>
</g>
<!-- ArrowApply -->
<g id="node10" class="node">
<title>ArrowApply</title>
<polygon fill="none" stroke="var(--darkreader-text--text)" points="437.5,-36 352.5,-36 352.5,0 437.5,0 437.5,-36"/>
<text text-anchor="middle" x="395" y="-12.95" font-family="Times,serif" font-size="14.00" fill="var(--darkreader-text--text)">ArrowApply</text>
</g>
<!-- Monad&#45;&gt;ArrowApply -->
<g id="edge10" class="edge">
<title>Monad&#45;&gt;ArrowApply</title>
<path fill="none" stroke="var(--darkreader-text--text)" stroke-width="2" d="M316.23,-71.52C332.38,-60.74 353.01,-46.99 369.11,-36.26"/>
</g>
<!-- Monoid&#45;&gt;Applicative -->
<g id="edge12" class="edge">
<title>Monoid&#45;&gt;Applicative</title>
<path fill="none" stroke="var(--darkreader-text--text)" stroke-dasharray="1,5" d="M259.84,-162C227.01,-162 194.17,-162 161.34,-162"/>
</g>
<!-- Monoid&#45;&gt;Alternative -->
<g id="edge14" class="edge">
<title>Monoid&#45;&gt;Alternative</title>
<path fill="none" stroke="var(--darkreader-text--text)" stroke-dasharray="1,5" d="M260.12,-148.32C233.1,-136.86 193.14,-119.91 163.69,-107.41"/>
</g>
<!-- Monoid&#45;&gt;Monad -->
<g id="edge18" class="edge">
<title>Monoid&#45;&gt;Monad</title>
<path fill="none" stroke="var(--darkreader-text--text)" stroke-dasharray="1,5" d="M290,-143.7C290,-132.85 290,-118.92 290,-108.1"/>
</g>
<!-- Monoid&#45;&gt;MonadPlus -->
<g id="edge15" class="edge">
<title>Monoid&#45;&gt;MonadPlus</title>
<path fill="none" stroke="var(--darkreader-text--text)" stroke-dasharray="1,5" d="M306.04,-143.85C314.01,-134.12 322.83,-121.27 327,-108 331.8,-92.74 331.29,-87.41 327,-72 323.37,-58.95 315.56,-45.91 308.56,-36.03"/>
</g>
<!-- Category -->
<g id="node12" class="node">
<title>Category</title>
<polygon fill="none" stroke="var(--darkreader-text--text)" points="433.75,-180 368.25,-180 368.25,-144 433.75,-144 433.75,-180"/>
<text text-anchor="middle" x="401" y="-156.95" font-family="Times,serif" font-size="14.00" fill="var(--darkreader-text--text)">Category</text>
</g>
<!-- Monoid&#45;&gt;Category -->
<g id="edge13" class="edge">
<title>Monoid&#45;&gt;Category</title>
<path fill="none" stroke="var(--darkreader-text--text)" stroke-dasharray="1,5" d="M319.92,-162C335.97,-162 352.01,-162 368.06,-162"/>
</g>
<!-- ArrowPlus -->
<g id="node13" class="node">
<title>ArrowPlus</title>
<polygon fill="none" stroke="var(--darkreader-text--text)" points="615.25,-108 540.75,-108 540.75,-72 615.25,-72 615.25,-108"/>
<text text-anchor="middle" x="578" y="-84.95" font-family="Times,serif" font-size="14.00" fill="var(--darkreader-text--text)">ArrowPlus</text>
</g>
<!-- Monoid&#45;&gt;ArrowPlus -->
<g id="edge16" class="edge">
<title>Monoid&#45;&gt;ArrowPlus</title>
<path fill="none" stroke="var(--darkreader-text--text)" stroke-dasharray="1,5" d="M320.17,-153.32C332.23,-150.32 346.25,-146.9 359,-144 435.15,-126.66 455.87,-129.34 531,-108 534.09,-107.12 537.27,-106.14 540.44,-105.11"/>
</g>
<!-- Foldable -->
<g id="node14" class="node">
<title>Foldable</title>
<polygon fill="none" stroke="var(--darkreader-text--text)" points="244.62,-108 181.38,-108 181.38,-72 244.62,-72 244.62,-108"/>
<text text-anchor="middle" x="213" y="-84.95" font-family="Times,serif" font-size="14.00" fill="var(--darkreader-text--text)">Foldable</text>
</g>
<!-- Monoid&#45;&gt;Foldable -->
<g id="edge17" class="edge">
<title>Monoid&#45;&gt;Foldable</title>
<path fill="none" stroke="var(--darkreader-text--text)" stroke-dasharray="1,5" d="M270.97,-143.7C259.12,-132.93 243.94,-119.12 232.08,-108.35"/>
</g>
<!-- Arrow -->
<g id="node15" class="node">
<title>Arrow</title>
<polygon fill="none" stroke="var(--darkreader-text--text)" points="428,-108 374,-108 374,-72 428,-72 428,-108"/>
<text text-anchor="middle" x="401" y="-84.95" font-family="Times,serif" font-size="14.00" fill="var(--darkreader-text--text)">Arrow</text>
</g>
<!-- Category&#45;&gt;Arrow -->
<g id="edge19" class="edge">
<title>Category&#45;&gt;Arrow</title>
<path fill="none" stroke="var(--darkreader-text--text)" d="M401,-143.7C401,-136.41 401,-127.73 401,-119.54"/>
<polygon fill="var(--darkreader-text--text)" stroke="var(--darkreader-text--text)" points="404.5,-119.62 401,-109.62 397.5,-119.62 404.5,-119.62"/>
</g>
<!-- Foldable&#45;&gt;Traversable -->
<g id="edge24" class="edge">
<title>Foldable&#45;&gt;Traversable</title>
<path fill="none" stroke="var(--darkreader-text--text)" d="M181.09,-74.5C159.91,-64.87 131.7,-52.05 107.73,-41.15"/>
<polygon fill="var(--darkreader-text--text)" stroke="var(--darkreader-text--text)" points="109.34,-38.04 98.79,-37.08 106.44,-44.41 109.34,-38.04"/>
</g>
<!-- Arrow&#45;&gt;ArrowApply -->
<g id="edge21" class="edge">
<title>Arrow&#45;&gt;ArrowApply</title>
<path fill="none" stroke="var(--darkreader-text--text)" d="M399.52,-71.7C398.89,-64.41 398.15,-55.73 397.45,-47.54"/>
<polygon fill="var(--darkreader-text--text)" stroke="var(--darkreader-text--text)" points="400.94,-47.28 396.6,-37.61 393.96,-47.87 400.94,-47.28"/>
</g>
<!-- ArrowChoice -->
<g id="node16" class="node">
<title>ArrowChoice</title>
<polygon fill="none" stroke="var(--darkreader-text--text)" points="544.75,-36 455.25,-36 455.25,0 544.75,0 544.75,-36"/>
<text text-anchor="middle" x="500" y="-12.95" font-family="Times,serif" font-size="14.00" fill="var(--darkreader-text--text)">ArrowChoice</text>
</g>
<!-- Arrow&#45;&gt;ArrowChoice -->
<g id="edge20" class="edge">
<title>Arrow&#45;&gt;ArrowChoice</title>
<path fill="none" stroke="var(--darkreader-text--text)" d="M425.73,-71.52C437.99,-62.85 452.98,-52.25 466.27,-42.85"/>
<polygon fill="var(--darkreader-text--text)" stroke="var(--darkreader-text--text)" points="468.21,-45.77 474.35,-37.13 464.17,-40.05 468.21,-45.77"/>
</g>
<!-- ArrowZero -->
<g id="node17" class="node">
<title>ArrowZero</title>
<polygon fill="none" stroke="var(--darkreader-text--text)" points="522.38,-108 445.62,-108 445.62,-72 522.38,-72 522.38,-108"/>
<text text-anchor="middle" x="484" y="-84.95" font-family="Times,serif" font-size="14.00" fill="var(--darkreader-text--text)">ArrowZero</text>
</g>
<!-- Arrow&#45;&gt;ArrowZero -->
<g id="edge22" class="edge">
<title>Arrow&#45;&gt;ArrowZero</title>
<path fill="none" stroke="var(--darkreader-text--text)" d="M428.23,-90C430.09,-90 431.95,-90 433.81,-90"/>
<polygon fill="var(--darkreader-text--text)" stroke="var(--darkreader-text--text)" points="433.71,-93.5 443.71,-90 433.71,-86.5 433.71,-93.5"/>
</g>
<!-- ArrowZero&#45;&gt;ArrowPlus -->
<g id="edge23" class="edge">
<title>ArrowZero&#45;&gt;ArrowPlus</title>
<path fill="none" stroke="var(--darkreader-text--text)" d="M522.55,-90C524.68,-90 526.81,-90 528.94,-90"/>
<polygon fill="var(--darkreader-text--text)" stroke="var(--darkreader-text--text)" points="528.8,-93.5 538.8,-90 528.8,-86.5 528.8,-93.5"/>
</g>
</g>
</svg>
