<?xml version="1.0" encoding="UTF-8" standalone="no"?>
<!DOCTYPE svg PUBLIC "-//W3C//DTD SVG 1.1//EN"
 "http://www.w3.org/Graphics/SVG/1.1/DTD/svg11.dtd">
<!-- Generated by graphviz version 8.0.5 (0)
 -->
<!-- Pages: 1 -->
<svg width="633pt" height="260pt"
 viewBox="0.00 0.00 632.75 260.00" xmlns="http://www.w3.org/2000/svg" xmlns:xlink="http://www.w3.org/1999/xlink">
<g id="graph0" class="graph" transform="scale(1 1) rotate(0) translate(4 256)">
<!-- Functor -->
<g id="node1" class="node">
<title>Functor</title>
<polygon fill="none" stroke="var(--svg-text)" stroke-width="2" points="73,-252 0,-252 0,-216 73,-216 73,-252"/>
<text text-anchor="start" x="8" y="-229.95" font-family="Times,serif" font-weight="bold" font-size="14.00" fill="var(--svg-text)"> &#160;Functor </text>
</g>
<!-- Applicative -->
<g id="node2" class="node">
<title>Applicative</title>
<polygon fill="none" stroke="var(--svg-text)" points="163,-180 84,-180 84,-144 163,-144 163,-180"/>
<text text-anchor="middle" x="123.5" y="-156.95" font-family="Times,serif" font-size="14.00" fill="var(--svg-text)">Applicative</text>
</g>
<!-- Functor&#45;&gt;Applicative -->
<g id="edge1" class="edge">
<title>Functor&#45;&gt;Applicative</title>
<path fill="none" stroke="var(--svg-text)" d="M58.45,-215.34C69.04,-206.82 81.91,-196.46 93.4,-187.22"/>
<polygon fill="var(--svg-text)" stroke="var(--svg-text)" points="95.26,-189.41 100.85,-180.42 90.87,-183.96 95.26,-189.41"/>
</g>
<!-- Traversable -->
<g id="node3" class="node">
<title>Traversable</title>
<polygon fill="none" stroke="var(--svg-text)" points="108.38,-36 28.62,-36 28.62,0 108.38,0 108.38,-36"/>
<text text-anchor="middle" x="68.5" y="-12.95" font-family="Times,serif" font-size="14.00" fill="var(--svg-text)">Traversable</text>
</g>
<!-- Functor&#45;&gt;Traversable -->
<g id="edge2" class="edge">
<title>Functor&#45;&gt;Traversable</title>
<path fill="none" stroke="var(--svg-text)" d="M39.17,-215.12C44.74,-177.88 57.62,-91.75 64.31,-47.05"/>
<polygon fill="var(--svg-text)" stroke="var(--svg-text)" points="67.88,-47.78 65.9,-37.38 60.96,-46.75 67.88,-47.78"/>
</g>
<!-- Applicative&#45;&gt;Traversable -->
<g id="edge7" class="edge">
<title>Applicative&#45;&gt;Traversable</title>
<path fill="none" stroke="var(--svg-text)" stroke-dasharray="1,5" d="M109.34,-143.85C101.81,-133.93 93,-120.89 87.5,-108 77.39,-84.31 72.45,-54.71 70.2,-36.33"/>
</g>
<!-- Alternative -->
<g id="node6" class="node">
<title>Alternative</title>
<polygon fill="none" stroke="var(--svg-text)" points="172.88,-108 96.12,-108 96.12,-72 172.88,-72 172.88,-108"/>
<text text-anchor="middle" x="134.5" y="-84.95" font-family="Times,serif" font-size="14.00" fill="var(--svg-text)">Alternative</text>
</g>
<!-- Applicative&#45;&gt;Alternative -->
<g id="edge5" class="edge">
<title>Applicative&#45;&gt;Alternative</title>
<path fill="none" stroke="var(--svg-text)" d="M126.22,-143.7C127.39,-136.24 128.79,-127.32 130.11,-118.97"/>
<polygon fill="var(--svg-text)" stroke="var(--svg-text)" points="133.72,-119.53 131.81,-109.1 126.8,-118.44 133.72,-119.53"/>
</g>
<!-- Monad -->
<g id="node7" class="node">
<title>Monad</title>
<polygon fill="none" stroke="var(--svg-text)" points="327,-108 272,-108 272,-72 327,-72 327,-108"/>
<text text-anchor="middle" x="299.5" y="-84.95" font-family="Times,serif" font-size="14.00" fill="var(--svg-text)">Monad</text>
</g>
<!-- Applicative&#45;&gt;Monad -->
<g id="edge6" class="edge">
<title>Applicative&#45;&gt;Monad</title>
<path fill="none" stroke="var(--svg-text)" d="M163.36,-146.87C189.35,-137.43 224.17,-124.4 262.01,-108.5"/>
<polygon fill="var(--svg-text)" stroke="var(--svg-text)" points="262.85,-111.52 270.69,-104.4 260.12,-105.08 262.85,-111.52"/>
</g>
<!-- Apply -->
<g id="node4" class="node">
<title>Apply</title>
<polygon fill="none" stroke="var(--svg-text)" points="150.5,-252 96.5,-252 96.5,-216 150.5,-216 150.5,-252"/>
<text text-anchor="middle" x="123.5" y="-228.95" font-family="Times,serif" font-size="14.00" fill="var(--svg-text)">Apply</text>
</g>
<!-- Apply&#45;&gt;Applicative -->
<g id="edge3" class="edge">
<title>Apply&#45;&gt;Applicative</title>
<path fill="none" stroke="var(--svg-text)" d="M123.5,-215.7C123.5,-208.24 123.5,-199.32 123.5,-190.97"/>
<polygon fill="var(--svg-text)" stroke="var(--svg-text)" points="127,-191.1 123.5,-181.1 120,-191.1 127,-191.1"/>
</g>
<!-- Semigroup -->
<g id="node5" class="node">
<title>Semigroup</title>
<polygon fill="none" stroke="var(--svg-text)" points="337.5,-252 261.5,-252 261.5,-216 337.5,-216 337.5,-252"/>
<text text-anchor="middle" x="299.5" y="-228.95" font-family="Times,serif" font-size="14.00" fill="var(--svg-text)">Semigroup</text>
</g>
<!-- Semigroup&#45;&gt;Apply -->
<g id="edge4" class="edge">
<title>Semigroup&#45;&gt;Apply</title>
<path fill="none" stroke="var(--svg-text)" stroke-dasharray="1,5" d="M261.21,-234C224.48,-234 187.74,-234 151,-234"/>
</g>
<!-- Monoid -->
<g id="node11" class="node">
<title>Monoid</title>
<polygon fill="none" stroke="var(--svg-text)" points="329.25,-180 269.75,-180 269.75,-144 329.25,-144 329.25,-180"/>
<text text-anchor="middle" x="299.5" y="-156.95" font-family="Times,serif" font-size="14.00" fill="var(--svg-text)">Monoid</text>
</g>
<!-- Semigroup&#45;&gt;Monoid -->
<g id="edge11" class="edge">
<title>Semigroup&#45;&gt;Monoid</title>
<path fill="none" stroke="var(--svg-text)" d="M299.5,-215.7C299.5,-208.24 299.5,-199.32 299.5,-190.97"/>
<polygon fill="var(--svg-text)" stroke="var(--svg-text)" points="303,-191.1 299.5,-181.1 296,-191.1 303,-191.1"/>
</g>
<!-- MonadPlus -->
<g id="node8" class="node">
<title>MonadPlus</title>
<polygon fill="none" stroke="var(--svg-text)" points="343.62,-36 265.38,-36 265.38,0 343.62,0 343.62,-36"/>
<text text-anchor="middle" x="304.5" y="-12.95" font-family="Times,serif" font-size="14.00" fill="var(--svg-text)">MonadPlus</text>
</g>
<!-- Monad&#45;&gt;MonadPlus -->
<g id="edge8" class="edge">
<title>Monad&#45;&gt;MonadPlus</title>
<path fill="none" stroke="var(--svg-text)" d="M300.74,-71.7C301.27,-64.24 301.91,-55.32 302.5,-46.97"/>
<polygon fill="var(--svg-text)" stroke="var(--svg-text)" points="306.06,-47.33 303.28,-37.1 299.07,-46.83 306.06,-47.33"/>
</g>
<!-- MonadFix -->
<g id="node9" class="node">
<title>MonadFix</title>
<polygon fill="none" stroke="var(--svg-text)" points="247,-36 174,-36 174,0 247,0 247,-36"/>
<text text-anchor="middle" x="210.5" y="-12.95" font-family="Times,serif" font-size="14.00" fill="var(--svg-text)">MonadFix</text>
</g>
<!-- Monad&#45;&gt;MonadFix -->
<g id="edge9" class="edge">
<title>Monad&#45;&gt;MonadFix</title>
<path fill="none" stroke="var(--svg-text)" d="M277.5,-71.7C266.48,-63.03 252.97,-52.4 240.97,-42.96"/>
<polygon fill="var(--svg-text)" stroke="var(--svg-text)" points="243.58,-39.78 233.56,-36.35 239.25,-45.28 243.58,-39.78"/>
</g>
<!-- ArrowApply -->
<g id="node10" class="node">
<title>ArrowApply</title>
<polygon fill="none" stroke="var(--svg-text)" points="447,-36 362,-36 362,0 447,0 447,-36"/>
<text text-anchor="middle" x="404.5" y="-12.95" font-family="Times,serif" font-size="14.00" fill="var(--svg-text)">ArrowApply</text>
</g>
<!-- Monad&#45;&gt;ArrowApply -->
<g id="edge10" class="edge">
<title>Monad&#45;&gt;ArrowApply</title>
<path fill="none" stroke="var(--svg-text)" stroke-width="2" d="M325.73,-71.52C341.88,-60.74 362.51,-46.99 378.61,-36.26"/>
</g>
<!-- Monoid&#45;&gt;Applicative -->
<g id="edge12" class="edge">
<title>Monoid&#45;&gt;Applicative</title>
<path fill="none" stroke="var(--svg-text)" stroke-dasharray="1,5" d="M269.46,-162C234.1,-162 198.74,-162 163.38,-162"/>
</g>
<!-- Monoid&#45;&gt;Alternative -->
<g id="edge14" class="edge">
<title>Monoid&#45;&gt;Alternative</title>
<path fill="none" stroke="var(--svg-text)" stroke-dasharray="1,5" d="M269.62,-148.32C242.6,-136.86 202.64,-119.91 173.19,-107.41"/>
</g>
<!-- Monoid&#45;&gt;Monad -->
<g id="edge18" class="edge">
<title>Monoid&#45;&gt;Monad</title>
<path fill="none" stroke="var(--svg-text)" stroke-dasharray="1,5" d="M299.5,-143.7C299.5,-132.85 299.5,-118.92 299.5,-108.1"/>
</g>
<!-- Monoid&#45;&gt;MonadPlus -->
<g id="edge15" class="edge">
<title>Monoid&#45;&gt;MonadPlus</title>
<path fill="none" stroke="var(--svg-text)" stroke-dasharray="1,5" d="M315.54,-143.85C323.51,-134.12 332.33,-121.27 336.5,-108 341.3,-92.74 340.79,-87.41 336.5,-72 332.87,-58.95 325.06,-45.91 318.06,-36.03"/>
</g>
<!-- Category -->
<g id="node12" class="node">
<title>Category</title>
<polygon fill="none" stroke="var(--svg-text)" points="443.25,-180 377.75,-180 377.75,-144 443.25,-144 443.25,-180"/>
<text text-anchor="middle" x="410.5" y="-156.95" font-family="Times,serif" font-size="14.00" fill="var(--svg-text)">Category</text>
</g>
<!-- Monoid&#45;&gt;Category -->
<g id="edge13" class="edge">
<title>Monoid&#45;&gt;Category</title>
<path fill="none" stroke="var(--svg-text)" stroke-dasharray="1,5" d="M329.42,-162C345.47,-162 361.51,-162 377.56,-162"/>
</g>
<!-- ArrowPlus -->
<g id="node13" class="node">
<title>ArrowPlus</title>
<polygon fill="none" stroke="var(--svg-text)" points="624.75,-108 550.25,-108 550.25,-72 624.75,-72 624.75,-108"/>
<text text-anchor="middle" x="587.5" y="-84.95" font-family="Times,serif" font-size="14.00" fill="var(--svg-text)">ArrowPlus</text>
</g>
<!-- Monoid&#45;&gt;ArrowPlus -->
<g id="edge16" class="edge">
<title>Monoid&#45;&gt;ArrowPlus</title>
<path fill="none" stroke="var(--svg-text)" stroke-dasharray="1,5" d="M329.67,-153.32C341.73,-150.32 355.75,-146.9 368.5,-144 444.65,-126.66 465.37,-129.34 540.5,-108 543.59,-107.12 546.77,-106.14 549.94,-105.11"/>
</g>
<!-- Foldable -->
<g id="node14" class="node">
<title>Foldable</title>
<polygon fill="none" stroke="var(--svg-text)" points="254.12,-108 190.88,-108 190.88,-72 254.12,-72 254.12,-108"/>
<text text-anchor="middle" x="222.5" y="-84.95" font-family="Times,serif" font-size="14.00" fill="var(--svg-text)">Foldable</text>
</g>
<!-- Monoid&#45;&gt;Foldable -->
<g id="edge17" class="edge">
<title>Monoid&#45;&gt;Foldable</title>
<path fill="none" stroke="var(--svg-text)" stroke-dasharray="1,5" d="M280.47,-143.7C268.62,-132.93 253.44,-119.12 241.58,-108.35"/>
</g>
<!-- Arrow -->
<g id="node15" class="node">
<title>Arrow</title>
<polygon fill="none" stroke="var(--svg-text)" points="437.5,-108 383.5,-108 383.5,-72 437.5,-72 437.5,-108"/>
<text text-anchor="middle" x="410.5" y="-84.95" font-family="Times,serif" font-size="14.00" fill="var(--svg-text)">Arrow</text>
</g>
<!-- Category&#45;&gt;Arrow -->
<g id="edge19" class="edge">
<title>Category&#45;&gt;Arrow</title>
<path fill="none" stroke="var(--svg-text)" d="M410.5,-143.7C410.5,-136.24 410.5,-127.32 410.5,-118.97"/>
<polygon fill="var(--svg-text)" stroke="var(--svg-text)" points="414,-119.1 410.5,-109.1 407,-119.1 414,-119.1"/>
</g>
<!-- Foldable&#45;&gt;Traversable -->
<g id="edge24" class="edge">
<title>Foldable&#45;&gt;Traversable</title>
<path fill="none" stroke="var(--svg-text)" d="M190.59,-74.5C169.31,-64.82 140.95,-51.93 116.91,-41"/>
<polygon fill="var(--svg-text)" stroke="var(--svg-text)" points="118.46,-37.41 107.91,-36.46 115.56,-43.78 118.46,-37.41"/>
</g>
<!-- Arrow&#45;&gt;ArrowApply -->
<g id="edge21" class="edge">
<title>Arrow&#45;&gt;ArrowApply</title>
<path fill="none" stroke="var(--svg-text)" d="M409.02,-71.7C408.38,-64.24 407.61,-55.32 406.9,-46.97"/>
<polygon fill="var(--svg-text)" stroke="var(--svg-text)" points="410.31,-46.77 405.97,-37.1 403.33,-47.37 410.31,-46.77"/>
</g>
<!-- ArrowChoice -->
<g id="node16" class="node">
<title>ArrowChoice</title>
<polygon fill="none" stroke="var(--svg-text)" points="554.25,-36 464.75,-36 464.75,0 554.25,0 554.25,-36"/>
<text text-anchor="middle" x="509.5" y="-12.95" font-family="Times,serif" font-size="14.00" fill="var(--svg-text)">ArrowChoice</text>
</g>
<!-- Arrow&#45;&gt;ArrowChoice -->
<g id="edge20" class="edge">
<title>Arrow&#45;&gt;ArrowChoice</title>
<path fill="none" stroke="var(--svg-text)" d="M435.23,-71.52C447.6,-62.76 462.77,-52.04 476.16,-42.58"/>
<polygon fill="var(--svg-text)" stroke="var(--svg-text)" points="477.94,-44.89 484.09,-36.26 473.9,-39.18 477.94,-44.89"/>
</g>
<!-- ArrowZero -->
<g id="node17" class="node">
<title>ArrowZero</title>
<polygon fill="none" stroke="var(--svg-text)" points="531.88,-108 455.12,-108 455.12,-72 531.88,-72 531.88,-108"/>
<text text-anchor="middle" x="493.5" y="-84.95" font-family="Times,serif" font-size="14.00" fill="var(--svg-text)">ArrowZero</text>
</g>
<!-- Arrow&#45;&gt;ArrowZero -->
<g id="edge22" class="edge">
<title>Arrow&#45;&gt;ArrowZero</title>
<path fill="none" stroke="var(--svg-text)" d="M437.73,-90C439.77,-90 441.81,-90 443.84,-90"/>
<polygon fill="var(--svg-text)" stroke="var(--svg-text)" points="443.73,-93.5 453.73,-90 443.73,-86.5 443.73,-93.5"/>
</g>
<!-- ArrowZero&#45;&gt;ArrowPlus -->
<g id="edge23" class="edge">
<title>ArrowZero&#45;&gt;ArrowPlus</title>
<path fill="none" stroke="var(--svg-text)" d="M532.05,-90C534.37,-90 536.68,-90 538.99,-90"/>
<polygon fill="var(--svg-text)" stroke="var(--svg-text)" points="538.81,-93.5 548.81,-90 538.81,-86.5 538.81,-93.5"/>
</g>
</g>
</svg>
