<?xml version="1.0" encoding="UTF-8" standalone="no"?>
<!DOCTYPE svg PUBLIC "-//W3C//DTD SVG 1.1//EN"
 "http://www.w3.org/Graphics/SVG/1.1/DTD/svg11.dtd">
<!-- Generated by graphviz version 8.0.5 (0)
 -->
<!-- Pages: 1 -->
<svg width="623pt" height="260pt"
 viewBox="0.00 0.00 623.25 260.00" xmlns="http://www.w3.org/2000/svg" xmlns:xlink="http://www.w3.org/1999/xlink">
<g id="graph0" class="graph" transform="scale(1 1) rotate(0) translate(4 256)">
<!-- Functor -->
<g id="node1" class="node">
<title>Functor</title>
<polygon fill="none" stroke="white" points="58,-252 0,-252 0,-216 58,-216 58,-252"/>
<text text-anchor="middle" x="29" y="-228.95" font-family="Times,serif" font-size="14.00" fill="white">Functor</text>
</g>
<!-- Applicative -->
<g id="node2" class="node">
<title>Applicative</title>
<polygon fill="none" stroke="white" stroke-width="2" points="160.5,-180 75.5,-180 75.5,-144 160.5,-144 160.5,-180"/>
<text text-anchor="start" x="83.5" y="-157.95" font-family="Times,serif" font-weight="bold" font-size="14.00" fill="white"> Applicative</text>
</g>
<!-- Functor&#45;&gt;Applicative -->
<g id="edge1" class="edge">
<title>Functor&#45;&gt;Applicative</title>
<path fill="none" stroke="white" d="M51,-215.7C61.85,-207.16 75.13,-196.72 86.99,-187.39"/>
<polygon fill="white" stroke="white" points="88.63,-189.77 94.32,-180.84 84.3,-184.27 88.63,-189.77"/>
</g>
<!-- Traversable -->
<g id="node3" class="node">
<title>Traversable</title>
<polygon fill="none" stroke="white" points="98.88,-36 19.12,-36 19.12,0 98.88,0 98.88,-36"/>
<text text-anchor="middle" x="59" y="-12.95" font-family="Times,serif" font-size="14.00" fill="white">Traversable</text>
</g>
<!-- Functor&#45;&gt;Traversable -->
<g id="edge2" class="edge">
<title>Functor&#45;&gt;Traversable</title>
<path fill="none" stroke="white" d="M31.4,-215.85C36.57,-178.99 48.78,-91.92 55.08,-46.96"/>
<polygon fill="white" stroke="white" points="58.66,-47.62 56.58,-37.23 51.73,-46.65 58.66,-47.62"/>
</g>
<!-- Applicative&#45;&gt;Traversable -->
<g id="edge7" class="edge">
<title>Applicative&#45;&gt;Traversable</title>
<path fill="none" stroke="white" stroke-dasharray="1,5" d="M101.4,-143.15C93.2,-133.43 83.84,-120.79 78,-108 67.3,-84.57 62.52,-54.9 60.46,-36.43"/>
</g>
<!-- Alternative -->
<g id="node6" class="node">
<title>Alternative</title>
<polygon fill="none" stroke="white" points="163.38,-108 86.62,-108 86.62,-72 163.38,-72 163.38,-108"/>
<text text-anchor="middle" x="125" y="-84.95" font-family="Times,serif" font-size="14.00" fill="white">Alternative</text>
</g>
<!-- Applicative&#45;&gt;Alternative -->
<g id="edge5" class="edge">
<title>Applicative&#45;&gt;Alternative</title>
<path fill="none" stroke="white" d="M119.77,-143.34C120.49,-136.07 121.35,-127.47 122.16,-119.36"/>
<polygon fill="white" stroke="white" points="125.75,-119.71 123.26,-109.42 118.78,-119.02 125.75,-119.71"/>
</g>
<!-- Monad -->
<g id="node7" class="node">
<title>Monad</title>
<polygon fill="none" stroke="white" points="317.5,-108 262.5,-108 262.5,-72 317.5,-72 317.5,-108"/>
<text text-anchor="middle" x="290" y="-84.95" font-family="Times,serif" font-size="14.00" fill="white">Monad</text>
</g>
<!-- Applicative&#45;&gt;Monad -->
<g id="edge6" class="edge">
<title>Applicative&#45;&gt;Monad</title>
<path fill="none" stroke="white" d="M161.49,-144.93C186.04,-135.67 217.43,-123.49 252.26,-108.63"/>
<polygon fill="white" stroke="white" points="253.37,-111.54 261.18,-104.37 250.61,-105.1 253.37,-111.54"/>
</g>
<!-- Apply -->
<g id="node4" class="node">
<title>Apply</title>
<polygon fill="none" stroke="white" points="145,-252 91,-252 91,-216 145,-216 145,-252"/>
<text text-anchor="middle" x="118" y="-228.95" font-family="Times,serif" font-size="14.00" fill="white">Apply</text>
</g>
<!-- Apply&#45;&gt;Applicative -->
<g id="edge3" class="edge">
<title>Apply&#45;&gt;Applicative</title>
<path fill="none" stroke="white" d="M118,-215.7C118,-208.35 118,-199.59 118,-191.34"/>
<polygon fill="white" stroke="white" points="121.5,-191.59 118,-181.59 114.5,-191.59 121.5,-191.59"/>
</g>
<!-- Semigroup -->
<g id="node5" class="node">
<title>Semigroup</title>
<polygon fill="none" stroke="white" points="328,-252 252,-252 252,-216 328,-216 328,-252"/>
<text text-anchor="middle" x="290" y="-228.95" font-family="Times,serif" font-size="14.00" fill="white">Semigroup</text>
</g>
<!-- Semigroup&#45;&gt;Apply -->
<g id="edge4" class="edge">
<title>Semigroup&#45;&gt;Apply</title>
<path fill="none" stroke="white" stroke-dasharray="1,5" d="M251.54,-234C216.1,-234 180.65,-234 145.21,-234"/>
</g>
<!-- Monoid -->
<g id="node11" class="node">
<title>Monoid</title>
<polygon fill="none" stroke="white" points="319.75,-180 260.25,-180 260.25,-144 319.75,-144 319.75,-180"/>
<text text-anchor="middle" x="290" y="-156.95" font-family="Times,serif" font-size="14.00" fill="white">Monoid</text>
</g>
<!-- Semigroup&#45;&gt;Monoid -->
<g id="edge11" class="edge">
<title>Semigroup&#45;&gt;Monoid</title>
<path fill="none" stroke="white" d="M290,-215.7C290,-208.24 290,-199.32 290,-190.97"/>
<polygon fill="white" stroke="white" points="293.5,-191.1 290,-181.1 286.5,-191.1 293.5,-191.1"/>
</g>
<!-- MonadPlus -->
<g id="node8" class="node">
<title>MonadPlus</title>
<polygon fill="none" stroke="white" points="334.12,-36 255.88,-36 255.88,0 334.12,0 334.12,-36"/>
<text text-anchor="middle" x="295" y="-12.95" font-family="Times,serif" font-size="14.00" fill="white">MonadPlus</text>
</g>
<!-- Monad&#45;&gt;MonadPlus -->
<g id="edge8" class="edge">
<title>Monad&#45;&gt;MonadPlus</title>
<path fill="none" stroke="white" d="M291.24,-71.7C291.77,-64.24 292.41,-55.32 293,-46.97"/>
<polygon fill="white" stroke="white" points="296.56,-47.33 293.78,-37.1 289.57,-46.83 296.56,-47.33"/>
</g>
<!-- MonadFix -->
<g id="node9" class="node">
<title>MonadFix</title>
<polygon fill="none" stroke="white" points="237.5,-36 164.5,-36 164.5,0 237.5,0 237.5,-36"/>
<text text-anchor="middle" x="201" y="-12.95" font-family="Times,serif" font-size="14.00" fill="white">MonadFix</text>
</g>
<!-- Monad&#45;&gt;MonadFix -->
<g id="edge9" class="edge">
<title>Monad&#45;&gt;MonadFix</title>
<path fill="none" stroke="white" d="M268,-71.7C256.98,-63.03 243.47,-52.4 231.47,-42.96"/>
<polygon fill="white" stroke="white" points="234.08,-39.78 224.06,-36.35 229.75,-45.28 234.08,-39.78"/>
</g>
<!-- ArrowApply -->
<g id="node10" class="node">
<title>ArrowApply</title>
<polygon fill="none" stroke="white" points="437.5,-36 352.5,-36 352.5,0 437.5,0 437.5,-36"/>
<text text-anchor="middle" x="395" y="-12.95" font-family="Times,serif" font-size="14.00" fill="white">ArrowApply</text>
</g>
<!-- Monad&#45;&gt;ArrowApply -->
<g id="edge10" class="edge">
<title>Monad&#45;&gt;ArrowApply</title>
<path fill="none" stroke="white" stroke-width="2" d="M316.23,-71.52C332.38,-60.74 353.01,-46.99 369.11,-36.26"/>
</g>
<!-- Monoid&#45;&gt;Applicative -->
<g id="edge12" class="edge">
<title>Monoid&#45;&gt;Applicative</title>
<path fill="none" stroke="white" stroke-dasharray="1,5" d="M259.84,-162C227.01,-162 194.17,-162 161.34,-162"/>
</g>
<!-- Monoid&#45;&gt;Alternative -->
<g id="edge14" class="edge">
<title>Monoid&#45;&gt;Alternative</title>
<path fill="none" stroke="white" stroke-dasharray="1,5" d="M260.12,-148.32C233.1,-136.86 193.14,-119.91 163.69,-107.41"/>
</g>
<!-- Monoid&#45;&gt;Monad -->
<g id="edge18" class="edge">
<title>Monoid&#45;&gt;Monad</title>
<path fill="none" stroke="white" stroke-dasharray="1,5" d="M290,-143.7C290,-132.85 290,-118.92 290,-108.1"/>
</g>
<!-- Monoid&#45;&gt;MonadPlus -->
<g id="edge15" class="edge">
<title>Monoid&#45;&gt;MonadPlus</title>
<path fill="none" stroke="white" stroke-dasharray="1,5" d="M306.04,-143.85C314.01,-134.12 322.83,-121.27 327,-108 331.8,-92.74 331.29,-87.41 327,-72 323.37,-58.95 315.56,-45.91 308.56,-36.03"/>
</g>
<!-- Category -->
<g id="node12" class="node">
<title>Category</title>
<polygon fill="none" stroke="white" points="433.75,-180 368.25,-180 368.25,-144 433.75,-144 433.75,-180"/>
<text text-anchor="middle" x="401" y="-156.95" font-family="Times,serif" font-size="14.00" fill="white">Category</text>
</g>
<!-- Monoid&#45;&gt;Category -->
<g id="edge13" class="edge">
<title>Monoid&#45;&gt;Category</title>
<path fill="none" stroke="white" stroke-dasharray="1,5" d="M319.92,-162C335.97,-162 352.01,-162 368.06,-162"/>
</g>
<!-- ArrowPlus -->
<g id="node13" class="node">
<title>ArrowPlus</title>
<polygon fill="none" stroke="white" points="615.25,-108 540.75,-108 540.75,-72 615.25,-72 615.25,-108"/>
<text text-anchor="middle" x="578" y="-84.95" font-family="Times,serif" font-size="14.00" fill="white">ArrowPlus</text>
</g>
<!-- Monoid&#45;&gt;ArrowPlus -->
<g id="edge16" class="edge">
<title>Monoid&#45;&gt;ArrowPlus</title>
<path fill="none" stroke="white" stroke-dasharray="1,5" d="M320.17,-153.32C332.23,-150.32 346.25,-146.9 359,-144 435.15,-126.66 455.87,-129.34 531,-108 534.09,-107.12 537.27,-106.14 540.44,-105.11"/>
</g>
<!-- Foldable -->
<g id="node14" class="node">
<title>Foldable</title>
<polygon fill="none" stroke="white" points="244.62,-108 181.38,-108 181.38,-72 244.62,-72 244.62,-108"/>
<text text-anchor="middle" x="213" y="-84.95" font-family="Times,serif" font-size="14.00" fill="white">Foldable</text>
</g>
<!-- Monoid&#45;&gt;Foldable -->
<g id="edge17" class="edge">
<title>Monoid&#45;&gt;Foldable</title>
<path fill="none" stroke="white" stroke-dasharray="1,5" d="M270.97,-143.7C259.12,-132.93 243.94,-119.12 232.08,-108.35"/>
</g>
<!-- Arrow -->
<g id="node15" class="node">
<title>Arrow</title>
<polygon fill="none" stroke="white" points="428,-108 374,-108 374,-72 428,-72 428,-108"/>
<text text-anchor="middle" x="401" y="-84.95" font-family="Times,serif" font-size="14.00" fill="white">Arrow</text>
</g>
<!-- Category&#45;&gt;Arrow -->
<g id="edge19" class="edge">
<title>Category&#45;&gt;Arrow</title>
<path fill="none" stroke="white" d="M401,-143.7C401,-136.24 401,-127.32 401,-118.97"/>
<polygon fill="white" stroke="white" points="404.5,-119.1 401,-109.1 397.5,-119.1 404.5,-119.1"/>
</g>
<!-- Foldable&#45;&gt;Traversable -->
<g id="edge24" class="edge">
<title>Foldable&#45;&gt;Traversable</title>
<path fill="none" stroke="white" d="M181.09,-74.5C159.81,-64.82 131.45,-51.93 107.41,-41"/>
<polygon fill="white" stroke="white" points="108.96,-37.41 98.41,-36.46 106.06,-43.78 108.96,-37.41"/>
</g>
<!-- Arrow&#45;&gt;ArrowApply -->
<g id="edge21" class="edge">
<title>Arrow&#45;&gt;ArrowApply</title>
<path fill="none" stroke="white" d="M399.52,-71.7C398.88,-64.24 398.11,-55.32 397.4,-46.97"/>
<polygon fill="white" stroke="white" points="400.81,-46.77 396.47,-37.1 393.83,-47.37 400.81,-46.77"/>
</g>
<!-- ArrowChoice -->
<g id="node16" class="node">
<title>ArrowChoice</title>
<polygon fill="none" stroke="white" points="544.75,-36 455.25,-36 455.25,0 544.75,0 544.75,-36"/>
<text text-anchor="middle" x="500" y="-12.95" font-family="Times,serif" font-size="14.00" fill="white">ArrowChoice</text>
</g>
<!-- Arrow&#45;&gt;ArrowChoice -->
<g id="edge20" class="edge">
<title>Arrow&#45;&gt;ArrowChoice</title>
<path fill="none" stroke="white" d="M425.73,-71.52C438.1,-62.76 453.27,-52.04 466.66,-42.58"/>
<polygon fill="white" stroke="white" points="468.44,-44.89 474.59,-36.26 464.4,-39.18 468.44,-44.89"/>
</g>
<!-- ArrowZero -->
<g id="node17" class="node">
<title>ArrowZero</title>
<polygon fill="none" stroke="white" points="522.38,-108 445.62,-108 445.62,-72 522.38,-72 522.38,-108"/>
<text text-anchor="middle" x="484" y="-84.95" font-family="Times,serif" font-size="14.00" fill="white">ArrowZero</text>
</g>
<!-- Arrow&#45;&gt;ArrowZero -->
<g id="edge22" class="edge">
<title>Arrow&#45;&gt;ArrowZero</title>
<path fill="none" stroke="white" d="M428.23,-90C430.27,-90 432.31,-90 434.34,-90"/>
<polygon fill="white" stroke="white" points="434.23,-93.5 444.23,-90 434.23,-86.5 434.23,-93.5"/>
</g>
<!-- ArrowZero&#45;&gt;ArrowPlus -->
<g id="edge23" class="edge">
<title>ArrowZero&#45;&gt;ArrowPlus</title>
<path fill="none" stroke="white" d="M522.55,-90C524.87,-90 527.18,-90 529.49,-90"/>
<polygon fill="white" stroke="white" points="529.31,-93.5 539.31,-90 529.31,-86.5 529.31,-93.5"/>
</g>
</g>
</svg>
